<svg width="1210" height="266" viewBox="0 0 1210 266" fill="none" xmlns="http://www.w3.org/2000/svg">
<path d="M98.1719 1.93289L105.437 1.93289C107.958 3.44123 109.117 9.30672 109.117 28.9692V75.7637H239.102C239.102 34.1689 239.103 69.3165 239.102 43.5277C239.101 22.3644 234.905 1.93289 213.104 1.93289L105.437 1.93289C103.691 0.888577 101.292 1.93289 98.1719 1.93289Z" fill="#BCBEC0"/>
<path d="M510.866 32.0498V113.374H489.185V50.928H460.859V113.374H439.177V32.0498H510.866Z" fill="#DB2B21"/>
<path fill-rule="evenodd" clip-rule="evenodd" d="M540.5 112.828C544.946 113.658 550.179 114.072 556.199 114.072C562.232 114.072 567.48 113.658 571.936 112.828C576.392 112 580.262 110.513 583.545 108.367C586.828 106.224 589.364 103.18 591.155 99.2339C592.947 95.2906 593.843 90.2912 593.843 84.238V61.2592C593.843 55.206 592.942 50.1963 591.142 46.2353C589.342 42.2744 586.805 39.23 583.53 37.1022C580.257 34.977 576.392 33.4967 571.936 32.669C567.48 31.8387 562.232 31.4248 556.199 31.4248C550.179 31.4248 544.946 31.8387 540.5 32.669C536.051 33.4967 532.192 34.977 528.916 37.1022C525.643 39.23 523.102 42.2744 521.291 46.2353C519.484 50.1963 518.58 55.206 518.58 61.2592V84.238C518.58 90.2912 519.481 95.2906 521.281 99.2339C523.081 103.18 525.623 106.224 528.904 108.367C532.187 110.513 536.051 112 540.5 112.828ZM565.538 94.3287C563.463 94.9 560.353 95.1869 556.206 95.1869C552.093 95.1869 549.018 94.9 546.979 94.3287C544.94 93.7548 543.45 92.531 542.505 90.6597C541.561 88.7884 541.035 85.8532 540.931 81.8465V63.5269C541.035 59.538 541.566 56.618 542.518 54.7645C543.473 52.911 544.963 51.7024 546.992 51.1361C549.021 50.5725 552.093 50.2881 556.206 50.2881C559.312 50.2881 561.787 50.4277 563.631 50.6994C565.474 50.9736 566.98 51.5475 568.145 52.4209C569.311 53.2944 570.161 54.5995 570.699 56.3387C571.238 58.078 571.507 60.4724 571.507 63.5269V81.8465C571.507 85.8176 571.03 88.7452 570.077 90.6343C569.123 92.5234 567.609 93.7548 565.538 94.3287Z" fill="#DB2B21"/>
<path fill-rule="evenodd" clip-rule="evenodd" d="M601.013 113.378H622.697V92.573H641.89C647.59 92.573 652.239 92.0373 655.84 90.9709C659.44 89.9019 662.233 88.2032 664.221 85.8749C666.204 83.544 667.603 80.4514 668.416 76.597C669.226 72.7402 669.632 67.827 669.632 61.8627C669.632 56.5153 669.127 51.9501 668.111 48.1643C667.096 44.3785 665.506 41.3112 663.345 38.9651C661.185 36.6165 658.343 34.8797 654.822 33.7498C651.3 32.6199 646.989 32.0537 641.89 32.0537H601.013V113.378ZM637.517 73.6825H622.681V50.917H637.517C640.318 50.917 642.407 51.242 643.784 51.8945C645.16 52.5471 646.084 53.6364 646.559 55.1649C647.036 56.6909 647.275 58.9202 647.275 61.8478C647.275 65.4838 647.031 68.099 646.546 69.6987C646.061 71.2958 645.172 72.3596 643.875 72.8878C642.58 73.4184 640.46 73.6825 637.517 73.6825Z" fill="#DB2B21"/>
<path d="M711.73 50.928V113.377H690.048V50.928H669.212V32.0498H733.622V50.928H711.73Z" fill="#DB2B21"/>
<path fill-rule="evenodd" clip-rule="evenodd" d="M756.135 99.4032H785.306L789.544 113.381H811.675L786.947 32.0537H753.961L729.583 113.381H752.136L756.135 99.4032ZM770.884 48.2881L780.969 83.551H760.798L770.67 48.2881H770.884Z" fill="#DB2B21"/>
<path d="M823.341 32.0498H889.261V113.374H867.473V50.928H843.938V85.0763C843.938 91.0939 843.057 96.266 841.29 100.59C839.525 104.914 836.834 108.235 833.218 110.556C829.6 112.877 825.116 114.037 819.769 114.037C815.851 114.037 812.161 113.71 808.701 113.057V95.4789C810.222 95.9918 812.426 96.2483 815.32 96.2483C818.286 96.2483 820.363 95.4434 821.556 93.8387C822.747 92.234 823.341 89.4181 823.341 85.3936V32.0498Z" fill="#DB2B21"/>
<path d="M439.345 146.558H498.793V220.184H490.622V153.934H447.513V220.184H439.345V146.558Z" fill="#9D9D9C"/>
<path fill-rule="evenodd" clip-rule="evenodd" d="M513.958 152.733C511.708 155.391 510.113 159.124 509.179 163.928C508.242 168.734 507.775 175.206 507.775 183.344C507.775 191.434 508.237 197.875 509.166 202.664C510.096 207.453 511.688 211.178 513.947 213.839C516.205 216.497 519.274 218.348 523.159 219.389C527.042 220.427 532.209 220.951 538.663 220.951C545.163 220.951 550.376 220.427 554.299 219.389C558.222 218.348 561.302 216.505 563.536 213.861C565.768 211.218 567.35 207.486 568.279 202.664C569.208 197.842 569.673 191.401 569.673 183.344C569.673 175.239 569.216 168.772 568.302 163.94C567.39 159.111 565.814 155.371 563.571 152.72C561.329 150.067 558.275 148.226 554.408 147.192C550.541 146.159 545.356 145.644 538.853 145.644C532.305 145.644 527.082 146.159 523.182 147.192C519.282 148.226 516.207 150.072 513.958 152.733ZM519.918 208.318C518.405 206.228 517.384 203.286 516.856 199.487C516.328 195.691 516.064 190.316 516.064 183.364C516.064 176.252 516.313 170.813 516.805 167.05C517.303 163.285 518.309 160.355 519.822 158.265C521.335 156.175 523.529 154.748 526.403 153.989C529.277 153.227 533.406 152.847 538.786 152.847C544.119 152.847 548.222 153.227 551.096 153.989C553.97 154.748 556.159 156.17 557.665 158.252C559.173 160.337 560.173 163.264 560.666 167.038C561.163 170.811 561.412 176.252 561.412 183.364C561.412 190.412 561.156 195.816 560.645 199.571C560.13 203.329 559.127 206.249 557.629 208.328C556.131 210.413 553.93 211.842 551.025 212.619C548.118 213.396 544.04 213.785 538.786 213.785C533.551 213.785 529.473 213.396 526.558 212.619C523.646 211.842 521.432 210.408 519.918 208.318Z" fill="#9D9D9C"/>
<path d="M625.851 195.548H633.829C633.829 202.101 632.989 207.182 631.305 210.793C629.622 214.406 626.692 217.003 622.51 218.58C618.33 220.157 612.363 220.947 604.609 220.947C598.729 220.947 593.965 220.431 590.311 219.398C586.66 218.364 583.722 216.534 581.506 213.906C579.287 211.278 577.677 207.53 576.674 202.66C575.674 197.79 575.173 191.414 575.173 183.533C575.173 175.685 575.666 169.309 576.651 164.406C577.636 159.506 579.246 155.692 581.48 152.967C583.715 150.246 586.67 148.344 590.347 147.262C594.024 146.18 598.777 145.64 604.609 145.64C610.424 145.64 615.141 146.112 618.762 147.056C622.383 148.004 625.168 149.453 627.123 151.406C629.078 153.361 630.454 155.783 631.257 158.678C632.057 161.567 632.587 165.295 632.841 169.86L624.889 169.766C624.376 164.911 623.652 161.377 622.715 159.155C621.778 156.939 619.963 155.329 617.272 154.326C614.58 153.325 610.36 152.823 604.609 152.823C600.252 152.823 596.74 153.252 594.072 154.11C591.406 154.968 589.296 156.489 587.739 158.678C586.185 160.862 585.081 163.934 584.426 167.89C583.766 171.848 583.438 177.061 583.438 183.533C583.438 190.086 583.761 195.287 584.4 199.141C585.04 202.995 586.137 205.991 587.694 208.139C589.245 210.288 591.352 211.76 594.011 212.56C596.672 213.362 600.201 213.761 604.609 213.761C609.063 213.761 612.655 213.484 615.385 212.933C618.117 212.38 620.245 211.44 621.766 210.11C623.287 208.779 624.348 206.966 624.95 204.666C625.549 202.368 625.851 199.329 625.851 195.548" fill="#9D9D9C"/>
<path d="M659.153 220.222V153.974H635.029V146.499H691.326L691.229 153.974H667.417V220.222H659.153Z" fill="#9D9D9C"/>
<path fill-rule="evenodd" clip-rule="evenodd" d="M720 146.444L693.111 220.164H701.977L707.891 205.003H745.086L750.614 220.164H759.358L731.896 146.444H720ZM726.103 152.562L742.445 197.831H709.861L726.103 152.562Z" fill="#9D9D9C"/>
<path fill-rule="evenodd" clip-rule="evenodd" d="M765.939 220.167H803.523C810.315 220.167 815.147 218.384 818.023 214.82C820.9 211.255 822.337 205.981 822.337 198.996C822.337 195.505 822.05 192.666 821.471 190.477C820.895 188.291 819.786 186.466 818.145 185C816.5 183.533 814.095 182.36 810.924 181.479C813.583 180.534 815.586 179.293 816.929 177.754C818.277 176.218 819.153 174.435 819.56 172.409C819.971 170.383 820.177 167.798 820.177 164.66C820.177 158.124 818.668 153.452 815.657 150.649C812.646 147.846 807.913 146.444 801.458 146.444H765.939V220.167ZM774.115 153.761V178.654H797.546C801.245 178.654 804.124 178.276 806.184 177.524C808.24 176.773 809.713 175.442 810.591 173.535C811.472 171.628 811.914 168.914 811.914 165.39C811.914 160.888 811.114 157.826 809.522 156.198C807.928 154.573 804.922 153.761 800.501 153.761H774.115ZM774.115 185.776V212.759H796.847C800.372 212.759 803.157 212.615 805.208 212.328C807.26 212.038 808.946 211.447 810.266 210.55C811.589 209.651 812.554 208.324 813.163 206.561C813.773 204.799 814.075 202.402 814.075 199.376C814.075 195.372 813.679 192.416 812.887 190.509C812.095 188.602 810.761 187.338 808.885 186.713C807.011 186.089 804.145 185.776 800.285 185.776H774.115Z" fill="#9D9D9C"/>
<path d="M877.456 146.499H885.624V212.843H923.109V146.499H931.279V212.843H936.495V237.162H929.215V220.222H831.681V146.499H839.849V212.843H877.456V146.499Z" fill="#9D9D9C"/>
<path d="M944.529 146.499H952.697V214.623L994.605 146.499H1007.7V220.222H999.531V152.796L957.504 220.222H944.529V146.499Z" fill="#9D9D9C"/>
<path d="M1027.93 146.499V178.674H1035.31L1065.32 146.499H1076.35L1042.49 182.123L1080.29 220.222H1068.97L1035.21 185.954H1027.93V220.222H1019.76V146.499H1027.93Z" fill="#9D9D9C"/>
<path fill-rule="evenodd" clip-rule="evenodd" d="M1089.34 152.733C1087.09 155.391 1085.5 159.124 1084.56 163.928C1083.62 168.734 1083.16 175.206 1083.16 183.344C1083.16 191.434 1083.62 197.875 1084.55 202.664C1085.48 207.453 1087.07 211.178 1089.33 213.839C1091.59 216.497 1094.66 218.348 1098.54 219.389C1102.42 220.427 1107.59 220.951 1114.05 220.951C1120.55 220.951 1125.76 220.427 1129.68 219.389C1133.61 218.348 1136.68 216.505 1138.92 213.861C1141.15 211.218 1142.73 207.486 1143.66 202.664C1144.59 197.842 1145.06 191.401 1145.06 183.344C1145.06 175.239 1144.6 168.772 1143.68 163.94C1142.77 159.111 1141.2 155.371 1138.95 152.72C1136.71 150.067 1133.66 148.226 1129.79 147.192C1125.92 146.159 1120.74 145.644 1114.24 145.644C1107.69 145.644 1102.46 146.159 1098.56 147.192C1094.66 148.226 1091.59 150.072 1089.34 152.733ZM1095.3 208.318C1093.79 206.228 1092.77 203.286 1092.24 199.487C1091.71 195.691 1091.45 190.316 1091.45 183.364C1091.45 176.252 1091.69 170.813 1092.19 167.05C1092.69 163.285 1093.69 160.355 1095.2 158.265C1096.72 156.175 1098.91 154.748 1101.79 153.989C1104.66 153.227 1108.79 152.847 1114.17 152.847C1119.5 152.847 1123.6 153.227 1126.48 153.989C1129.35 154.748 1131.54 156.17 1133.05 158.252C1134.55 160.337 1135.56 163.264 1136.05 167.038C1136.55 170.811 1136.8 176.252 1136.8 183.364C1136.8 190.412 1136.54 195.816 1136.03 199.571C1135.52 203.329 1134.51 206.249 1133.01 208.328C1131.52 210.413 1129.31 211.842 1126.41 212.619C1123.5 213.396 1119.42 213.785 1114.17 213.785C1108.93 213.785 1104.86 213.396 1101.94 212.619C1099.03 211.842 1096.81 210.408 1095.3 208.318Z" fill="#9D9D9C"/>
<path fill-rule="evenodd" clip-rule="evenodd" d="M1153.36 220.167H1190.94C1197.73 220.167 1202.56 218.384 1205.44 214.82C1208.32 211.255 1209.75 205.981 1209.75 198.996C1209.75 195.505 1209.47 192.666 1208.89 190.477C1208.31 188.291 1207.2 186.466 1205.56 185C1203.92 183.533 1201.51 182.36 1198.34 181.479C1201 180.534 1203 179.293 1204.35 177.754C1205.69 176.218 1206.57 174.435 1206.97 172.409C1207.39 170.383 1207.59 167.798 1207.59 164.66C1207.59 158.124 1206.09 153.452 1203.07 150.649C1200.06 147.846 1195.33 146.444 1188.87 146.444H1153.36V220.167ZM1161.53 153.761V178.654H1184.96C1188.66 178.654 1191.54 178.276 1193.6 177.524C1195.66 176.773 1197.13 175.442 1198.01 173.535C1198.89 171.628 1199.33 168.914 1199.33 165.39C1199.33 160.888 1198.53 157.826 1196.94 156.198C1195.35 154.573 1192.34 153.761 1187.92 153.761H1161.53ZM1161.53 185.776V212.759H1184.27C1187.79 212.759 1190.57 212.615 1192.63 212.328C1194.68 212.038 1196.36 211.447 1197.68 210.55C1199.01 209.651 1199.97 208.324 1200.58 206.561C1201.19 204.799 1201.49 202.402 1201.49 199.376C1201.49 195.372 1201.1 192.416 1200.31 190.509C1199.51 188.602 1198.18 187.338 1196.3 186.713C1194.43 186.089 1191.56 185.776 1187.7 185.776H1161.53Z" fill="#9D9D9C"/>
<path fill-rule="evenodd" clip-rule="evenodd" d="M188.958 225.171H303.418V110.714H188.958V225.171ZM148.998 70.7555L149 265.151H343.396V70.7529L148.998 70.7555Z" fill="#9D9D9C"/>
<path fill-rule="evenodd" clip-rule="evenodd" d="M228.689 185.495H343.146V71.0381H228.689V185.495ZM188.728 225.418H383.121V31.0225H188.728V225.418Z" fill="#C92723"/>
<path d="M343.43 265.151L303.462 225.414V70.9891L343.43 70.7529V265.151Z" fill="#9D9D9C"/>
<path d="M54.9763 0.664891L176.521 0.663574C176.521 0.663574 148.894 0.663549 148.894 29.6152V234.088C148.894 234.088 147.09 262.887 122.21 262.887H0.0834961C0.0834961 262.887 32.2164 262.887 28.9792 227.487V45.2044C28.9792 17.5899 39.8159 0.664891 54.9763 0.664891Z" fill="#E6E7E8"/>
<path d="M43.1277 45.0735V36.8311C43.1277 36.5549 43.3515 36.3311 43.6277 36.3311H90.5222C90.7984 36.3311 91.0222 36.5549 91.0222 36.8311V52.0359C91.0222 52.3121 90.7984 52.5359 90.5222 52.5359H43.6277C43.3515 52.5359 43.1277 52.3121 43.1277 52.0359V45.0735Z" stroke="#BCBEC0" stroke-width="3"/>
<path d="M43.1277 76.3593V68.832C43.1277 68.5559 43.3515 68.332 43.6277 68.332H90.5222C90.7984 68.332 91.0222 68.5559 91.0222 68.832V82.6959C91.0222 82.972 90.7984 83.1959 90.5222 83.1959H43.6277C43.3515 83.1959 43.1277 82.972 43.1277 82.6959V76.3593Z" stroke="#BCBEC0" stroke-width="3"/>
<path d="M8.56421 135.848V119.202C8.56421 115.612 11.4744 112.702 15.0642 112.702H80.3023C83.8922 112.702 86.8023 115.612 86.8023 119.202V149.413C86.8023 153.003 83.8922 155.913 80.3023 155.913H15.0642C11.4744 155.913 8.56421 153.003 8.56421 149.413V135.848Z" fill="#264B82" stroke="#3A2C6D" stroke-width="3"/>
<path d="M6.1521 133.316V116.67C6.1521 113.08 9.06225 110.17 12.6521 110.17H77.8902C81.48 110.17 84.3902 113.08 84.3902 116.67V146.881C84.3902 150.471 81.48 153.381 77.8902 153.381H12.6521C9.06225 153.381 6.1521 150.471 6.1521 146.881V133.316Z" fill="#3E6EB8" stroke="#3E6EB8" stroke-width="3"/>
<path d="M32.5046 133.071L41.5582 141.956C42.4113 142.794 43.8037 142.7 44.5377 141.757L60.4479 121.306" stroke="#DAE2E6" stroke-width="6" stroke-linecap="round"/>
<path d="M37.9343 246.021H130.153" stroke="#BCBEC0" stroke-width="6"/>
<path d="M41.6277 223.598H133.846" stroke="#BCBEC0" stroke-width="6"/>
<path d="M41.6277 201.174H133.846" stroke="#BCBEC0" stroke-width="6"/>
</svg>
